<!DOCTYPE svg PUBLIC "-//W3C//DTD SVG 1.1//EN" "http://www.w3.org/Graphics/SVG/1.1/DTD/svg11.dtd">
<!-- Uploaded to: SVG Repo, www.svgrepo.com, Transformed by: SVG Repo Mixer Tools -->
<svg height="800px" width="800px" version="1.1" id="Capa_1" xmlns="http://www.w3.org/2000/svg" xmlns:xlink="http://www.w3.org/1999/xlink" viewBox="0 0 182.432 182.432" xml:space="preserve" fill="#E6E6E6">
<g id="SVGRepo_bgCarrier" stroke-width="0"/>
<g id="SVGRepo_tracerCarrier" stroke-linecap="round" stroke-linejoin="round"/>
<g id="SVGRepo_iconCarrier"> <path style="fill:#E6E6E6;" d="M179.932,177.049H13.1c-1.381,0-2.5-1.119-2.5-2.5V48.399H2.5c-0.877,0-1.691-0.46-2.143-1.212 c-0.452-0.752-0.477-1.686-0.065-2.461L20.495,6.709c0.434-0.816,1.283-1.327,2.208-1.327h106.412c0.925,0,1.774,0.51,2.208,1.327 l20.202,38.017c0.412,0.775,0.387,1.709-0.065,2.461c-0.452,0.752-1.265,1.212-2.143,1.212h-8.119v52.805l39.521,13.111 c1.165,0.387,1.876,1.561,1.681,2.771c-0.195,1.211-1.241,2.102-2.468,2.102h-5.99v44.002h5.99c1.381,0,2.5,1.119,2.5,2.5v8.86 C182.432,175.93,181.313,177.049,179.932,177.049z M141.197,172.049h36.234v-3.86h-5.99c-1.381,0-2.5-1.119-2.5-2.5v-6.36h-27.744 V172.049z M15.6,172.049h120.597V48.399H15.6V172.049z M141.197,154.33h27.744v-35.142h-27.744V154.33z M141.197,114.188h23.258 l-23.258-7.716V114.188z M138.697,43.399h6.459l-17.545-33.017H24.205L6.66,43.399H138.697z M121.86,159.33h-20.783 c-1.381,0-2.5-1.119-2.5-2.5V125.28c0-1.381,1.119-2.5,2.5-2.5h20.783c1.381,0,2.5,1.119,2.5,2.5v14.762 c0.066,0.225,0.102,0.463,0.102,0.709s-0.036,0.484-0.102,0.709v15.369C124.36,158.21,123.241,159.33,121.86,159.33z M103.577,154.33h15.783v-11.078h-15.783V154.33z M103.577,138.251h15.783V127.78h-15.783V138.251z M71.436,159.33H29.665 c-1.381,0-2.5-1.119-2.5-2.5V125.28c0-1.381,1.119-2.5,2.5-2.5h41.771c1.381,0,2.5,1.119,2.5,2.5v31.549 C73.936,158.21,72.816,159.33,71.436,159.33z M53.05,154.33h15.885v-11.078H53.05V154.33z M32.165,154.33H48.05v-11.078H32.165 V154.33z M53.05,138.251h15.885V127.78H53.05V138.251z M32.165,138.251H48.05V127.78H32.165V138.251z M121.962,100.731H80.191 c-1.381,0-2.5-1.119-2.5-2.5V66.682c0-1.381,1.119-2.5,2.5-2.5h41.771c1.381,0,2.5,1.119,2.5,2.5v31.549 C124.462,99.612,123.343,100.731,121.962,100.731z M103.577,95.731h15.885V85.26h-15.885V95.731z M82.691,95.731h15.885V85.26 H82.691V95.731z M103.577,80.26h15.885V69.182h-15.885V80.26z M82.691,80.26h15.885V69.182H82.691V80.26z M50.55,100.731H29.767 c-1.381,0-2.5-1.119-2.5-2.5V83.47c-0.066-0.225-0.102-0.463-0.102-0.709s0.036-0.484,0.102-0.709V66.682c0-1.381,1.119-2.5,2.5-2.5 H50.55c1.381,0,2.5,1.119,2.5,2.5v31.549C53.05,99.612,51.931,100.731,50.55,100.731z M32.267,95.731H48.05V85.26H32.267V95.731z M32.267,80.26H48.05V69.182H32.267V80.26z"/> </g>
</svg>