<?xml version="1.0" standalone="no"?>
<!DOCTYPE svg PUBLIC "-//W3C//DTD SVG 20010904//EN"
 "http://www.w3.org/TR/2001/REC-SVG-20010904/DTD/svg10.dtd">
<svg version="1.0" xmlns="http://www.w3.org/2000/svg"
 width="140.000000pt" height="58.000000pt" viewBox="0 0 140.000000 58.000000"
 preserveAspectRatio="xMidYMid meet">
<g transform="translate(0.000000,58.000000) scale(0.100000,-0.100000)"
fill="#004d5a" stroke="none">
<path d="M124 566 c-39 -17 -71 -58 -83 -105 -5 -20 -17 -100 -26 -179 -18
-159 -14 -190 33 -235 45 -43 71 -47 302 -47 232 0 257 4 303 48 44 42 47 74
25 254 -23 190 -35 223 -98 256 -41 21 -56 22 -235 22 -136 -1 -199 -5 -221
-14z m419 -67 c37 -17 45 -42 62 -179 22 -180 21 -204 -11 -229 -25 -20 -39
-21 -243 -21 -298 0 -291 -6 -262 225 21 159 29 187 59 204 24 14 364 14 395
0z"/>
<path d="M163 263 c-7 -2 -13 -15 -13 -29 0 -18 11 -30 53 -51 45 -24 63 -28
142 -28 76 0 97 4 139 25 62 31 77 53 54 76 -16 16 -21 15 -79 -10 -75 -34
-159 -34 -227 2 -44 23 -49 24 -69 15z"/>
<path d="M954 499 c-10 -17 13 -36 27 -22 12 12 4 33 -11 33 -5 0 -12 -5 -16
-11z"/>
<path d="M1004 499 c-10 -17 13 -36 27 -22 12 12 4 33 -11 33 -5 0 -12 -5 -16
-11z"/>
<path d="M1090 416 c0 -78 -8 -92 -42 -74 -14 7 -18 21 -18 63 0 42 -3 55 -15
55 -8 0 -15 -4 -15 -9 0 -5 -13 -13 -28 -19 -16 -5 -36 -17 -45 -27 -20 -19
-22 -66 -5 -83 15 -15 64 -16 73 -1 5 6 13 3 22 -10 16 -23 62 -28 81 -9 9 9
15 9 24 0 15 -15 60 -16 75 -1 8 8 13 8 17 0 9 -14 53 -14 61 -1 5 8 11 7 20
0 41 -34 105 18 91 73 -9 37 -36 36 -36 -1 0 -16 -3 -31 -6 -35 -12 -12 -34 6
-34 29 0 31 -27 32 -32 2 -2 -15 -11 -24 -25 -26 -19 -3 -23 1 -23 22 0 19 -5
26 -20 26 -14 0 -20 -7 -20 -24 0 -26 -14 -36 -42 -28 -15 4 -18 16 -18 78 0
67 -2 74 -20 74 -18 0 -20 -7 -20 -74z m-90 -35 c0 -20 -32 -37 -50 -26 -17
10 -11 25 13 35 33 13 37 12 37 -9z"/>
<path d="M1110 155 c0 -78 2 -85 20 -85 18 0 20 7 20 85 0 78 -2 85 -20 85
-18 0 -20 -7 -20 -85z"/>
<path d="M1180 155 c0 -78 2 -85 20 -85 18 0 20 7 20 85 0 78 -2 85 -20 85
-18 0 -20 -7 -20 -85z"/>
<path d="M819 192 c-29 -24 -20 -48 26 -68 45 -18 44 -26 -2 -22 -44 3 -57
-18 -17 -28 41 -11 78 7 82 38 3 23 -2 28 -27 35 -38 10 -36 29 2 27 33 -2 37
21 5 30 -35 9 -44 7 -69 -12z"/>
<path d="M956 186 c-29 -28 -31 -43 -14 -81 13 -30 53 -43 79 -27 12 8 20 8
24 2 3 -6 13 -10 21 -10 11 0 14 15 14 65 0 65 0 65 -27 64 -16 0 -38 2 -50 6
-16 5 -29 0 -47 -19z m84 -45 c0 -28 -28 -47 -48 -34 -24 15 -27 44 -7 59 22
17 55 1 55 -25z"/>
<path d="M1266 186 c-29 -28 -31 -43 -14 -81 13 -30 53 -43 79 -27 12 8 20 8
24 2 3 -6 13 -10 21 -10 11 0 14 15 14 65 0 65 0 65 -27 64 -16 0 -38 2 -50 6
-16 5 -29 0 -47 -19z m84 -45 c0 -28 -28 -47 -48 -34 -23 14 -26 38 -7 57 20
20 55 5 55 -23z"/>
</g>
</svg>
